<svg id="Out_of_stock_SKUs" data-name="Out of stock SKUs" xmlns="http://www.w3.org/2000/svg" width="46" height="46" viewBox="0 0 46 46">
  <rect id="Rectangle_5798" data-name="Rectangle 5798" width="46" height="46" fill="#fff"/>
  <circle id="Ellipse_635" data-name="Ellipse 635" cx="19" cy="19" r="19" transform="translate(4 4)" fill="#e3f7fc"/>
  <g id="Group_42514" data-name="Group 42514" transform="translate(-1083.13 -148.131)">
    <path id="noun-delivered-3953048" d="M112.53,37.858l-.193.2V35h4v3.062l-.193-.2a.667.667,0,0,0-.947,0l-.86.867-.86-.867a.667.667,0,0,0-.947,0ZM121.009,35h-3.335v4.669a.667.667,0,0,1-.414.614.561.561,0,0,1-.253.053.668.668,0,0,1-.474-.193l-.86-.867-.86.867a.667.667,0,0,1-.947,0l-.86-.867-.86.867A.671.671,0,0,1,111,39.665V35h-3.335A2.668,2.668,0,0,0,105,37.664V51a2.668,2.668,0,0,0,2.668,2.668h6.67a6.67,6.67,0,1,1,9.338-9.338v-6.67A2.668,2.668,0,0,0,121.009,35Z" transform="translate(992.131 127.135)" fill="#199be0"/>
    <path id="Path_27776" data-name="Path 27776" d="M24.4,19.07A5.335,5.335,0,1,0,29.73,24.4,5.335,5.335,0,0,0,24.4,19.07ZM20.588,24.4a3.8,3.8,0,0,1,5.906-3.171L21.224,26.5a3.785,3.785,0,0,1-.636-2.1ZM24.4,28.2A3.785,3.785,0,0,1,22.3,27.59l5.285-5.285a3.8,3.8,0,0,1-3.171,5.906Z" transform="translate(1086.07 151.061)" fill="#7ce1fd"/>
  </g>
</svg>
