<svg id="Blocked" xmlns="http://www.w3.org/2000/svg" width="46" height="46" viewBox="0 0 46 46">
  <rect id="Rectangle_5798" data-name="Rectangle 5798" width="46" height="46" fill="#fff"/>
  <circle id="Ellipse_635" data-name="Ellipse 635" cx="19" cy="19" r="19" transform="translate(4 4)" fill="#fee"/>
  <g id="Group_42512" data-name="Group 42512" transform="translate(-1083.13 -148.131)">
    <path id="noun-delivered-3953048" d="M112.53,37.858l-.193.2V35h4v3.062l-.193-.2a.667.667,0,0,0-.947,0l-.86.867-.86-.867a.667.667,0,0,0-.947,0ZM121.009,35h-3.335v4.669a.667.667,0,0,1-.414.614.561.561,0,0,1-.253.053.668.668,0,0,1-.474-.193l-.86-.867-.86.867a.667.667,0,0,1-.947,0l-.86-.867-.86.867A.671.671,0,0,1,111,39.665V35h-3.335A2.668,2.668,0,0,0,105,37.664V51a2.668,2.668,0,0,0,2.668,2.668h6.67a6.67,6.67,0,1,1,9.338-9.338v-6.67A2.668,2.668,0,0,0,121.009,35Z" transform="translate(992.131 127.135)" fill="#ff4243"/>
    <path id="noun-package-4783186" d="M382.9,288.256a5.389,5.389,0,0,1-2.679,4.627,5.3,5.3,0,0,1-5.313,0,5.335,5.335,0,1,1,7.992-4.627Zm-3.91,2.211c.484.512,1.279-.273.767-.773l-1.426-1.438,1.426-1.438h0a.55.55,0,0,0,0-.773.539.539,0,0,0-.767,0l-1.426,1.438-1.426-1.438h0a.539.539,0,0,0-.764,0,.55.55,0,0,0,0,.77l1.426,1.438-1.426,1.438h0a.55.55,0,0,0,0,.773.539.539,0,0,0,.767,0l1.426-1.438Z" transform="translate(732.906 -112.797)" fill="#ffacac"/>
  </g>
</svg>
