<svg id="Total_Inventory" data-name="Total Inventory" xmlns="http://www.w3.org/2000/svg" width="46" height="46" viewBox="0 0 46 46">
  <rect id="Rectangle_5798" data-name="Rectangle 5798" width="46" height="46" fill="#fff"/>
  <circle id="Ellipse_635" data-name="Ellipse 635" cx="19" cy="19" r="19" transform="translate(4 4)" fill="#eefff4"/>
  <g id="Group_42513" data-name="Group 42513" transform="translate(-65.328 41)">
    <path id="Path_27773" data-name="Path 27773" d="M161.024,288.75v3.021a.5.5,0,0,0,.818.393l.944-.755.944.755a.5.5,0,0,0,.818-.393V288.75h3.021a.5.5,0,0,1,.5.5v9.568a.5.5,0,0,1-.5.5H158a.5.5,0,0,1-.5-.5v-9.568a.5.5,0,0,1,.5-.5Zm3.525,9.064h1.511a.5.5,0,0,0,0-1.007h-1.511a.5.5,0,0,0,0,1.007Zm-2.518-9.064h1.511v1.974l-.441-.352a.5.5,0,0,0-.629,0l-.441.352Z" transform="translate(-80.171 -306.168)" fill="#039300" fill-rule="evenodd"/>
    <path id="Path_27774" data-name="Path 27774" d="M362.274,288.75v3.021a.5.5,0,0,0,.818.393l.944-.755.944.755a.5.5,0,0,0,.818-.393V288.75h3.021a.5.5,0,0,1,.5.5v9.568a.5.5,0,0,1-.5.5h-9.568a.5.5,0,0,1-.5-.5v-9.568a.5.5,0,0,1,.5-.5Zm3.525,9.064h1.511a.5.5,0,0,0,0-1.007H365.8a.5.5,0,0,0,0,1.007Zm-2.518-9.064h1.511v1.974l-.441-.352a.5.5,0,0,0-.629,0l-.441.352Z" transform="translate(-269.839 -306.168)" fill="#039300" fill-rule="evenodd"/>
    <path id="Path_27775" data-name="Path 27775" d="M257.276,87.5v3.021a.5.5,0,0,0,.783.419l1.231-.821,1.231.821a.5.5,0,0,0,.783-.419V87.5h3.021a.5.5,0,0,1,.5.5v9.568a.5.5,0,0,1-.5.5H254.255a.5.5,0,0,1-.5-.5V88a.5.5,0,0,1,.5-.5Zm4.028,9.064h1.511a.5.5,0,1,0,0-1.007H261.3a.5.5,0,1,0,0,1.007ZM258.283,87.5H260.3v2.08l-.728-.485a.5.5,0,0,0-.559,0l-.728.485Z" transform="translate(-170.883 -116.5)" fill="#11cc05" fill-rule="evenodd"/>
  </g>
</svg>
