<svg id="Total_count_of_SKUs" data-name="Total count of SKUs" xmlns="http://www.w3.org/2000/svg" width="46" height="46" viewBox="0 0 46 46">
  <rect id="Rectangle_5798" data-name="Rectangle 5798" width="46" height="46" fill="#fff"/>
  <circle id="Ellipse_635" data-name="Ellipse 635" cx="19" cy="19" r="19" transform="translate(4 4)" fill="#ffe8c6"/>
  <g id="noun-inventory-3309612" transform="translate(48 8.831)">
    <g id="Group_42510" data-name="Group 42510" transform="translate(-37 5.169)">
      <path id="Path_27768" data-name="Path 27768" d="M7.036,21.1a.166.166,0,0,1-.163.168H3.834A.169.169,0,0,1,3.67,21.1v-.355a.165.165,0,0,1,.163-.163H4.2V19.253H4.045a.143.143,0,0,1-.134-.082.145.145,0,0,1,.014-.163l.5-.643a.154.154,0,0,1,.24,0l.494.643a.166.166,0,0,1,.014.163.144.144,0,0,1-.134.082H4.885v1.325h.936V19.253H5.668a.143.143,0,0,1-.134-.082.165.165,0,0,1,.014-.163l.5-.643a.154.154,0,0,1,.24,0l.494.643a.146.146,0,0,1,.014.163.135.135,0,0,1-.134.082H6.508v1.325h.365a.162.162,0,0,1,.163.163ZM19.681,7.169H13.671v4.186a.192.192,0,0,1-.307.154l-1.9-1.426a.187.187,0,0,0-.226,0L9.22,11.523a.192.192,0,0,1-.3-.158v-4.2H2.907A.907.907,0,0,0,2,8.076V22.028a.9.9,0,0,0,.907.9H14.6V14.461a1.735,1.735,0,0,1,1.733-1.733h4.254V8.076A.91.91,0,0,0,19.681,7.169Z" transform="translate(-2 -7.169)" fill="#ff9800"/>
      <g id="Group_42509" data-name="Group 42509" transform="translate(13.563 6.52)">
        <g id="Group_42501" data-name="Group 42501" transform="translate(1.055 1.803)">
          <g id="Group_42500" data-name="Group 42500">
            <g id="Group_42499" data-name="Group 42499">
              <path id="Path_27769" data-name="Path 27769" d="M33.992,24.833l-.758.991a.208.208,0,0,1-.149.079h-.014a.213.213,0,0,1-.145-.061l-.42-.42a.2.2,0,0,1,.289-.289l.257.257.618-.807a.2.2,0,1,1,.322.25Z" transform="translate(-32.447 -24.504)" fill="#ffbb56"/>
            </g>
          </g>
        </g>
        <g id="Group_42504" data-name="Group 42504" transform="translate(1.055 5.081)">
          <g id="Group_42503" data-name="Group 42503">
            <g id="Group_42502" data-name="Group 42502">
              <path id="Path_27770" data-name="Path 27770" d="M33.992,31.661l-.758.991a.207.207,0,0,1-.149.079h-.014a.213.213,0,0,1-.145-.061l-.42-.42a.2.2,0,0,1,.289-.289l.257.257.618-.807a.2.2,0,1,1,.322.25Z" transform="translate(-32.447 -31.333)" fill="#ffbb56"/>
            </g>
          </g>
        </g>
        <g id="Group_42507" data-name="Group 42507" transform="translate(1.055 8.36)">
          <g id="Group_42506" data-name="Group 42506">
            <g id="Group_42505" data-name="Group 42505">
              <path id="Path_27771" data-name="Path 27771" d="M33.992,38.49l-.758.991a.207.207,0,0,1-.149.079h-.014a.213.213,0,0,1-.145-.061l-.42-.42a.2.2,0,0,1,.289-.289l.257.257.618-.807a.2.2,0,1,1,.322.25Z" transform="translate(-32.447 -38.161)" fill="#ffbb56"/>
            </g>
          </g>
        </g>
        <g id="Group_42508" data-name="Group 42508">
          <path id="Path_27772" data-name="Path 27772" d="M38.961,20.748h-7.94a.771.771,0,0,0-.771.771V31.54a.768.768,0,0,0,.771.771h7.94a.771.771,0,0,0,.771-.771V21.519A.773.773,0,0,0,38.961,20.748Zm-5.717,9.739a.4.4,0,0,1-.4.4H31.356a.4.4,0,0,1-.4-.4V29a.4.4,0,0,1,.4-.4h1.487a.4.4,0,0,1,.4.4Zm0-3.193a.4.4,0,0,1-.4.4H31.356a.4.4,0,0,1-.4-.4V25.808a.4.4,0,0,1,.4-.4h1.487a.4.4,0,0,1,.4.4Zm0-3.193a.4.4,0,0,1-.4.4H31.356a.4.4,0,0,1-.4-.4V22.615a.4.4,0,0,1,.4-.4h1.487a.4.4,0,0,1,.4.4ZM38.676,30.1H34.167a.352.352,0,0,1,0-.7h4.509a.352.352,0,1,1,0,.7Zm0-3.193H34.167a.352.352,0,0,1,0-.7h4.509a.352.352,0,1,1,0,.7Zm0-3.193H34.167a.352.352,0,0,1,0-.7h4.509a.352.352,0,1,1,0,.7Z" transform="translate(-30.25 -20.748)" fill="#ffbb56"/>
        </g>
      </g>
    </g>
  </g>
</svg>
