<svg xmlns="http://www.w3.org/2000/svg" width="46" height="46" viewBox="0 0 46 46">
  <g id="Available" transform="translate(0)">
    <rect id="Rectangle_5798" data-name="Rectangle 5798" width="46" height="46" transform="translate(0)" fill="#fff"/>
    <circle id="Ellipse_635" data-name="Ellipse 635" cx="19" cy="19" r="19" transform="translate(4 4)" fill="#f1eeff"/>
    <g id="Group_42511" data-name="Group 42511" transform="translate(-1083.13 -148.131)">
      <path id="noun-delivered-3953048" d="M125.846,50.506a5.336,5.336,0,1,1-1.563-3.773,5.337,5.337,0,0,1,1.563,3.773ZM122.985,48.7a.667.667,0,0,0-.947,0l-2.195,2.2-.86-.867a.67.67,0,0,0-.947.947l1.334,1.334a.667.667,0,0,0,.947,0l2.668-2.668a.667.667,0,0,0,0-.947Z" transform="translate(989.961 124.965)" fill="#c39ff8"/>
      <path id="noun-delivered-3953048-2" data-name="noun-delivered-3953048" d="M112.53,37.858l-.193.2V35h4v3.062l-.193-.2a.667.667,0,0,0-.947,0l-.86.867-.86-.867a.667.667,0,0,0-.947,0ZM121.009,35h-3.335v4.669a.667.667,0,0,1-.414.614.561.561,0,0,1-.253.053.668.668,0,0,1-.474-.193l-.86-.867-.86.867a.667.667,0,0,1-.947,0l-.86-.867-.86.867A.671.671,0,0,1,111,39.665V35h-3.335A2.668,2.668,0,0,0,105,37.664V51a2.668,2.668,0,0,0,2.668,2.668h6.67a6.67,6.67,0,1,1,9.338-9.338v-6.67A2.668,2.668,0,0,0,121.009,35Z" transform="translate(992.131 127.135)" fill="#671ae0"/>
    </g>
  </g>
</svg>
