<svg width="18" height="18" viewBox="0 0 18 18" fill="none" xmlns="http://www.w3.org/2000/svg">
<g id="Reports">
<path id="Path 19961" d="M7.20778 17.9911H6.55378C6.33329 17.9908 6.12193 17.9031 5.96611 17.7471C5.8103 17.5911 5.72278 17.3796 5.72278 17.1591V9.9701C5.72278 9.73379 5.81665 9.50716 5.98375 9.34007C6.15084 9.17297 6.37747 9.0791 6.61378 9.0791H7.20778C7.44409 9.0791 7.67072 9.17297 7.83781 9.34007C8.00491 9.50716 8.09878 9.73379 8.09878 9.9701V17.1001C8.09878 17.3364 8.00491 17.563 7.83781 17.7301C7.67072 17.8972 7.44409 17.9911 7.20778 17.9911Z" fill="#6964E2"/>
<path id="Path 19962" d="M15.7188 17.9913H15.0648C14.8443 17.991 14.6329 17.9032 14.4771 17.7472C14.3213 17.5912 14.2338 17.3798 14.2338 17.1593V7.29627C14.2338 7.05997 14.3276 6.83334 14.4947 6.66624C14.6618 6.49915 14.8885 6.40527 15.1248 6.40527H15.7188C15.9551 6.40527 16.1817 6.49915 16.3488 6.66624C16.5159 6.83334 16.6098 7.05997 16.6098 7.29627V17.0963C16.6098 17.3326 16.5159 17.5592 16.3488 17.7263C16.1817 17.8934 15.9551 17.9873 15.7188 17.9873V17.9913Z" fill="#6964E2"/>
<path id="Path 19963" d="M11.4497 17.9911H10.7957C10.5752 17.9908 10.3639 17.9031 10.2081 17.7471C10.0522 17.591 9.96472 17.3796 9.96472 17.1591V11.1591C9.96459 11.042 9.98754 10.926 10.0323 10.8178C10.077 10.7096 10.1426 10.6113 10.2253 10.5284C10.3081 10.4456 10.4064 10.3798 10.5145 10.335C10.6227 10.2902 10.7386 10.2671 10.8557 10.2671H11.4497C11.686 10.2671 11.9127 10.361 12.0798 10.5281C12.2468 10.6952 12.3407 10.9218 12.3407 11.1581V17.0991C12.3409 17.2162 12.3179 17.3322 12.2732 17.4404C12.2285 17.5486 12.1629 17.6469 12.0801 17.7298C11.9974 17.8126 11.8991 17.8783 11.7909 17.9232C11.6828 17.968 11.5668 17.9911 11.4497 17.9911Z" fill="#6964E2"/>
<path id="Path 19964" d="M3.82976 12.9413V17.1003C3.82976 17.3366 3.73589 17.5632 3.56879 17.7303C3.4017 17.8974 3.17507 17.9913 2.93876 17.9913H2.28476C2.06427 17.9913 1.8528 17.9038 1.6968 17.748C1.5408 17.5921 1.45302 17.3808 1.45276 17.1603V12.9413C1.45276 12.705 1.54663 12.4784 1.71373 12.3113C1.88082 12.1442 2.10745 12.0503 2.34376 12.0503H2.93776C3.05485 12.0502 3.17082 12.0731 3.27904 12.1178C3.38725 12.1625 3.48559 12.2282 3.56844 12.3109C3.65128 12.3937 3.717 12.4919 3.76184 12.6001C3.80668 12.7083 3.82976 12.8242 3.82976 12.9413Z" fill="#6964E2"/>
<path id="Path 19965" d="M1.61175 9.97825C1.56846 9.97824 1.52563 9.96936 1.4859 9.95216C1.44617 9.93497 1.41038 9.90981 1.38075 9.87825L0.0857488 8.52725C0.0573441 8.49757 0.0351439 8.46252 0.0204472 8.42416C0.00575038 8.38579 -0.00114801 8.34488 0.000155598 8.30381C0.00145921 8.26275 0.0109387 8.22236 0.0280394 8.185C0.04514 8.14765 0.0695185 8.11408 0.0997488 8.08625L6.37775 2.23625C6.43829 2.18057 6.5179 2.15024 6.60015 2.15155C6.68239 2.15285 6.761 2.18568 6.81975 2.24325L10.1097 5.47725L14.1457 2.03525L13.2257 1.13525C13.1866 1.09715 13.1589 1.0489 13.1456 0.995911C13.1324 0.942922 13.1341 0.88729 13.1507 0.835254C13.1688 0.782682 13.201 0.736144 13.2439 0.70083C13.2868 0.665516 13.3387 0.642814 13.3937 0.635254L17.6517 0.00325368C17.6983 -0.00360367 17.7458 0.000411423 17.7906 0.0149843C17.8354 0.0295573 17.8761 0.0542926 17.9097 0.0872538C17.943 0.119834 17.9681 0.159852 17.9829 0.204012C17.9976 0.248172 18.0017 0.29521 17.9947 0.341254L17.3597 4.53025C17.3517 4.58477 17.3287 4.63601 17.2935 4.67834C17.2582 4.72068 17.2119 4.75248 17.1597 4.77025C17.1065 4.78752 17.0495 4.78984 16.995 4.77697C16.9406 4.76409 16.8906 4.73652 16.8507 4.69725L15.9337 3.79725L10.2337 8.69725C10.1728 8.75032 10.0942 8.77854 10.0134 8.77632C9.93264 8.77409 9.85566 8.74159 9.79775 8.68525L6.54675 5.48525L1.82675 9.89725C1.76768 9.9501 1.69101 9.97899 1.61175 9.97825Z" fill="var(--icon-stroke)"/>
</g>
</svg>
