<svg width="20" height="20" viewBox="0 0 20 20" fill="none" xmlns="http://www.w3.org/2000/svg">
<g id="Group 16363">
<g id="2707529_connect_distribution_manage_network_organize_icon">
<path id="Rectangle 5665" d="M15.96 10.001H11V11.193H15.96V10.001Z" fill="var(--icon-stroke)"/>
<path id="Rectangle 5666" d="M6.60222 12.8146L4.81799 15.4771L5.8082 16.1406L7.59243 13.4782L6.60222 12.8146Z" fill="var(--icon-stroke)"/>
<path id="Rectangle 5667" d="M7.0837 4.03445L5.97498 4.47217L7.22167 7.62998L8.33039 7.19226L7.0837 4.03445Z" fill="var(--icon-stroke)"/>
<path id="Path 19956" d="M1.684 9.00098C1.35094 9.00098 1.02535 9.09974 0.748421 9.28478C0.471488 9.46982 0.255646 9.73283 0.128188 10.0405C0.000730157 10.3482 -0.0326193 10.6868 0.0323582 11.0135C0.0973357 11.3402 0.257721 11.6402 0.493233 11.8757C0.728744 12.1113 1.0288 12.2716 1.35547 12.3366C1.68213 12.4016 2.02073 12.3682 2.32844 12.2408C2.63615 12.1133 2.89916 11.8975 3.0842 11.6206C3.26924 11.3436 3.368 11.018 3.368 10.685C3.36747 10.2385 3.18988 9.81049 2.87418 9.49479C2.55849 9.1791 2.13046 9.00151 1.684 9.00098Z" fill="var(--icon-stroke)"/>
<path id="Path 19959" d="M13.684 2.13721C13.3509 2.13721 13.0254 2.23597 12.7484 2.42101C12.4715 2.60605 12.2556 2.86906 12.1282 3.17677C12.0007 3.48448 11.9674 3.82307 12.0324 4.14974C12.0973 4.4764 12.2577 4.77646 12.4932 5.01197C12.7287 5.24749 13.0288 5.40787 13.3555 5.47285C13.6821 5.53783 14.0207 5.50448 14.3284 5.37702C14.6362 5.24956 14.8992 5.03372 15.0842 4.75679C15.2692 4.47985 15.368 4.15427 15.368 3.82121C15.3675 3.37474 15.1899 2.94672 14.8742 2.63102C14.5585 2.31533 14.1305 2.13774 13.684 2.13721Z" fill="var(--icon-stroke)"/>
<path id="Path 19960" d="M13.684 15.335C13.3509 15.335 13.0254 15.4337 12.7484 15.6188C12.4715 15.8038 12.2556 16.0668 12.1282 16.3745C12.0007 16.6822 11.9674 17.0208 12.0324 17.3475C12.0973 17.6742 12.2577 17.9742 12.4932 18.2097C12.7287 18.4452 13.0288 18.6056 13.3555 18.6706C13.6821 18.7356 14.0207 18.7022 14.3284 18.5748C14.6362 18.4473 14.8992 18.2315 15.0842 17.9545C15.2692 17.6776 15.368 17.352 15.368 17.019C15.3675 16.5725 15.1899 16.1445 14.8742 15.8288C14.5585 15.5131 14.1305 15.3355 13.684 15.335Z" fill="var(--icon-stroke)"/>
<path id="Ellipse 589" d="M8.803 14.211C10.794 14.211 12.408 12.597 12.408 10.606C12.408 8.61499 10.794 7.00098 8.803 7.00098C6.81201 7.00098 5.198 8.61499 5.198 10.606C5.198 12.597 6.81201 14.211 8.803 14.211Z" fill="#6964E2"/>
<path id="Ellipse 590" d="M17.167 13.667C18.7316 13.667 20 12.3986 20 10.834C20 9.26935 18.7316 8.00098 17.167 8.00098C15.6024 8.00098 14.334 9.26935 14.334 10.834C14.334 12.3986 15.6024 13.667 17.167 13.667Z" fill="#6964E2"/>
<path id="Ellipse 591" d="M4.234 20.001C5.79862 20.001 7.067 18.7326 7.067 17.168C7.067 15.6033 5.79862 14.335 4.234 14.335C2.66938 14.335 1.401 15.6033 1.401 17.168C1.401 18.7326 2.66938 20.001 4.234 20.001Z" fill="#6964E2"/>
<path id="Path 19950" d="M6.91694 5.47008C6.39558 5.67475 5.82524 5.72028 5.27801 5.60093C4.73077 5.48157 4.23119 5.20268 3.84241 4.7995C3.45362 4.39632 3.19306 3.88694 3.09367 3.33573C2.99428 2.78452 3.06051 2.21622 3.28399 1.70263C3.50747 1.18905 3.87817 0.753234 4.34925 0.450258C4.82033 0.147282 5.37065 -0.00925589 5.93066 0.000423212C6.49068 0.0101023 7.03526 0.185565 7.49559 0.504638C7.95592 0.823712 8.31134 1.27208 8.51694 1.79308C8.65353 2.13955 8.72048 2.50955 8.71398 2.88191C8.70748 3.25428 8.62765 3.62171 8.47905 3.9632C8.33045 4.30469 8.11601 4.61355 7.84797 4.87211C7.57993 5.13067 7.26356 5.33387 6.91694 5.47008Z" fill="#6964E2"/>
</g>
</g>
</svg>
