<svg xmlns="http://www.w3.org/2000/svg" width="20" height="20" viewBox="0 0 20 20">
    <g data-name="Group 16266" transform="translate(-148.193 -1466.193)">
        <circle data-name="Ellipse 599" cx="10" cy="10" r="10" transform="translate(148.193 1466.193)" style="fill:#fff"/>
        <g data-name="Group 16265">
            <path data-name="Path 19939" d="M1500.527 1263.719a2.938 2.938 0 0 0-3.069 2.788 2.681 2.681 0 0 0 .017.292v.009a4.56 4.56 0 0 0 .694 1.8 4.7 4.7 0 0 1 .745 2.15.4.4 0 0 0 .409.374h2.227a.4.4 0 0 0 .409-.364 4.7 4.7 0 0 1 .746-2.157 4.561 4.561 0 0 0 .694-1.8v-.009a2.709 2.709 0 0 0 .017-.3 2.928 2.928 0 0 0-2.889-2.783zm-.833 6.624a5.669 5.669 0 0 0-.816-2.137 3.877 3.877 0 0 1-.588-1.5 1.93 1.93 0 0 1-.012-.2 2.124 2.124 0 0 1 2.093-2.011 2.2 2.2 0 0 1 1.548.562 2.029 2.029 0 0 1 .681 1.445 1.937 1.937 0 0 1-.012.2 3.884 3.884 0 0 1-.589 1.5 5.665 5.665 0 0 0-.815 2.133z" transform="translate(-1342.246 208.994)" style="fill:#b18f01"/>
            <path data-name="Path 19940" d="M1529.053 1226a.428.428 0 0 0 .428-.428v-1.342a.428.428 0 1 0-.856 0v1.342a.428.428 0 0 0 .428.428z" transform="translate(-1370.86 245.638)" style="fill:#b18f01"/>
            <path data-name="Path 19941" d="M1587.64 1300.436h-1.34a.428.428 0 1 0 0 .855h1.342a.428.428 0 0 0 0-.855z" transform="translate(-1423.212 175.141)" style="fill:#b18f01"/>
            <path data-name="Path 19942" d="M1457.2 1300.864a.428.428 0 0 0-.428-.428h-1.342a.428.428 0 0 0 0 .855h1.342a.428.428 0 0 0 .428-.427z" transform="translate(-1303.47 175.141)" style="fill:#b18f01"/>
            <path data-name="Path 19943" d="m1581.2 1331.385-1.162-.671-.017-.009a.428.428 0 0 0-.428.738l1.18.682a.425.425 0 0 0 .1.042l.017.017h.1a.428.428 0 0 0 .211-.8z" transform="translate(-1417.283 147.322)" style="fill:#b18f01"/>
            <path data-name="Path 19944" d="m1465.752 1263.436-1.162-.671-.017-.009a.428.428 0 0 0-.428.738l1.1.633-.039.109h.336a.428.428 0 0 0 .211-.8z" transform="translate(-1311.698 209.839)" style="fill:#b18f01"/>
            <path data-name="Path 19945" d="M1558.324 1232.868a.428.428 0 0 0-.6.107l-.682 1.179a.428.428 0 0 0 .37.642.427.427 0 0 0 .37-.216l.669-1.16.009-.017a.426.426 0 0 0-.136-.535z" transform="translate(-1396.805 237.388)" style="fill:#b18f01"/>
            <path data-name="Path 19946" d="m1465.226 1330.7-1.179.679a.43.43 0 0 0-.214.369.427.427 0 0 0 .425.43.419.419 0 0 0 .215-.059l1.162-.671.017-.011a.428.428 0 0 0-.428-.738z" transform="translate(-1311.579 147.328)" style="fill:#b18f01"/>
            <path data-name="Path 19947" d="M1579.685 1264.039h.007a.434.434 0 0 0 .211-.056l1.157-.671a.357.357 0 0 0 .051-.03.428.428 0 0 0 .107-.6.428.428 0 0 0-.586-.113l-1.155.667a.428.428 0 0 0 .209.8z" transform="translate(-1417.144 210.033)" style="fill:#b18f01"/>
            <path data-name="Path 19948" d="m1493.077 1234.754.016.035h.152a.428.428 0 0 0 .37-.642l-.673-1.163-.011-.017a.428.428 0 0 0-.738.428l.681 1.183a.429.429 0 0 0 .203.176z" transform="translate(-1337.47 237.396)" style="fill:#b18f01"/>
            <path data-name="Path 19949" d="M1517.022 1371.11h-2.364a.428.428 0 0 0 0 .856h2.364a.428.428 0 0 0 0-.856z" transform="translate(-1357.645 110.097)" style="fill:#b18f01"/>
            <path data-name="Path 19950" d="M1523.178 1385.151h-1.153a.428.428 0 0 0 0 .856h1.153a.428.428 0 0 0 0-.856z" transform="translate(-1364.409 97.206)" style="fill:#b18f01"/>
        </g>
    </g>
</svg>
