<svg xmlns="http://www.w3.org/2000/svg" width="56" height="56" viewBox="0 0 56 56">
    <defs>
        <style>
            .cls-2{fill:#bfbcff}
        </style>
    </defs>
    <g id="Group_22406" data-name="Group 22406" transform="translate(-114 -3799)">
        <g id="Group_21725" data-name="Group 21725" transform="translate(114 3799)">
            <rect id="Rectangle_7853" data-name="Rectangle 7853" width="56" height="56" rx="28" style="fill:#f4f8ff"/>
        </g>
        <g id="Reports" transform="translate(126.133 3811.133)">
            <path id="Path_33668" data-name="Path 33668" class="cls-2" d="M23.618 47.708h-1.152A1.466 1.466 0 0 1 21 46.242V33.571A1.571 1.571 0 0 1 22.571 32h1.047a1.571 1.571 0 0 1 1.571 1.571v12.566a1.571 1.571 0 0 1-1.571 1.571z" transform="translate(-11.597 -17.841)"/>
            <path id="Path_33669" data-name="Path 33669" class="cls-2" d="M51.618 43.42h-1.152A1.466 1.466 0 0 1 49 41.954V24.571A1.571 1.571 0 0 1 50.571 23h1.047a1.571 1.571 0 0 1 1.571 1.571V41.85a1.571 1.571 0 0 1-1.571 1.571z" transform="translate(-25.774 -13.554)"/>
            <path id="Path_33670" data-name="Path 33670" class="cls-2" d="M37.618 49.614h-1.152A1.466 1.466 0 0 1 35 48.148V37.571A1.571 1.571 0 0 1 36.571 36h1.047a1.571 1.571 0 0 1 1.571 1.571v10.472a1.571 1.571 0 0 1-1.571 1.571z" transform="translate(-18.625 -19.747)"/>
            <path id="Path_33671" data-name="Path 33671" class="cls-2" d="M11.189 43.571V50.9a1.571 1.571 0 0 1-1.571 1.571H8.466A1.466 1.466 0 0 1 7 51.006v-7.435A1.571 1.571 0 0 1 8.571 42h1.047a1.571 1.571 0 0 1 1.571 1.571z" transform="translate(-4.443 -22.605)"/>
            <path id="Path_33672" data-name="Path 33672" d="M4.787 19.791a.512.512 0 0 1-.384-.173l-2.145-2.384a.569.569 0 0 1 .023-.778L12.7 6.145a.511.511 0 0 1 .733.012l5.459 5.7 6.7-6.067-1.531-1.59a.54.54 0 0 1-.124-.535.508.508 0 0 1 .4-.355l7.066-1.113a.488.488 0 0 1 .429.147.538.538 0 0 1 .142.448l-1.053 7.383a.518.518 0 0 1-.339.422.487.487 0 0 1-.513-.129l-1.521-1.58-9.448 8.634a.511.511 0 0 1-.723-.022l-5.4-5.634-7.83 7.776a.512.512 0 0 1-.36.149z" transform="translate(-2.116 -2.189)" style="fill:#6964e2"/>
        </g>
    </g>
</svg>
