<svg xmlns="http://www.w3.org/2000/svg" width="18" height="18" viewBox="0 0 18 18">
    <defs>
        <style>
            .cls-2{fill:rgba(0,0,0,.8)}
        </style>
    </defs>
    <g id="Group_16237" data-name="Group 16237" transform="translate(-897 -1199)">
        <path id="Rectangle_5709" data-name="Rectangle 5709" transform="translate(897 1199)" style="fill:none" d="M0 0h18v18H0z"/>
        <g id="Group_668" data-name="Group 668" transform="translate(924.508 1206.728)">
            <path id="Path_1282" data-name="Path 1282" class="cls-2" d="M-18.642 2.694v-6.721a.7.7 0 0 0-.7-.7.7.7 0 0 0-.7.7v6.721l-1.77-1.778A.7.7 0 0 0-22.8.9a.7.7 0 0 0-.017.991l.017.017 2.965 2.976.561.2.428-.2 2.971-2.977a.7.7 0 0 0 .018-.991.7.7 0 0 0-.99-.016l-.018.017z" transform="translate(1.004 -1)"/>
            <path id="Path_1283" data-name="Path 1283" class="cls-2" d="M-25.508.973a.7.7 0 0 1 .7-.7.7.7 0 0 1 .7.7v2.8a.7.7 0 0 0 .7.7h9.8a.7.7 0 0 0 .7-.7v-2.8a.7.7 0 0 1 .7-.7.7.7 0 0 1 .7.7v2.8a2.1 2.1 0 0 1-2.1 2.1h-9.8a2.1 2.1 0 0 1-2.1-2.1z" transform="translate(0 2.391)"/>
        </g>
    </g>
</svg>
