<svg width="18" height="20" viewBox="0 0 18 20" fill="none" xmlns="http://www.w3.org/2000/svg">
<g id="Group 16373">
<g id="Question">
<path id="Path 19971" d="M14.446 16.2189C14.3043 16.1664 14.153 16.1454 14.0024 16.1573C13.8518 16.1693 13.7056 16.2138 13.574 16.2879C12.1831 17.0888 10.605 17.5073 9 17.5009C7.83436 17.5173 6.6769 17.3039 5.59373 16.8729C4.51056 16.4419 3.5229 15.8018 2.68715 14.9891C1.8514 14.1764 1.18393 13.207 0.722868 12.1363C0.261803 11.0656 0.0161706 9.91453 0 8.74888C0.0337091 6.39544 1.00079 4.15175 2.68855 2.51125C4.37631 0.870742 6.64655 -0.0322428 9 0.000880109C10.1656 -0.015518 11.3231 0.197864 12.4063 0.628839C13.4894 1.05981 14.4771 1.69994 15.3128 2.51266C16.1486 3.32538 16.8161 4.29478 17.2771 5.36548C17.7382 6.43619 17.9838 7.58723 18 8.75288C18.0021 10.2169 17.6271 11.6569 16.911 12.9339C16.8496 13.0465 16.8114 13.1703 16.7989 13.298C16.7863 13.4256 16.7996 13.5545 16.838 13.6769L17.81 16.8769C17.8217 16.9184 17.825 16.9618 17.8196 17.0046C17.8142 17.0474 17.8003 17.0887 17.7787 17.126C17.757 17.1633 17.7281 17.1959 17.6936 17.2218C17.6592 17.2477 17.6198 17.2664 17.578 17.2769C17.5072 17.2966 17.4321 17.2938 17.363 17.2689L14.446 16.2189Z" fill="#6964E2"/>
<path id="Path 19972" d="M7.81998 20.0011L7.81398 19.9951L7.80798 20.0011H7.81998Z" fill="#C95757"/>
<path id="Path 19973" d="M7.80798 18.7999H7.81998L7.81398 18.7939L7.80798 18.7999Z" fill="#C95757"/>
<path id="Path 19974" d="M8.14697 20.0011H8.15897L8.15297 19.9951L8.14697 20.0011Z" fill="#EA5C6D"/>
<path id="Path 19975" d="M13.377 19.0458C13.542 18.9798 13.701 18.9078 13.861 18.8328L13.771 18.7998C13.637 18.8868 13.509 18.9678 13.377 19.0458Z" fill="#E3E6E8"/>
<path id="Path 19976" d="M9.74297 10.4157H8.24297V9.29675C8.24603 9.02028 8.34893 8.75424 8.53271 8.54768C8.71648 8.34112 8.96874 8.20795 9.24297 8.17275C9.55918 8.14869 9.85301 8.00045 10.0602 7.76042C10.2675 7.52039 10.3713 7.20808 10.349 6.89175C10.3461 6.85085 10.3411 6.81013 10.334 6.76975C10.296 6.47764 10.1622 6.20637 9.95359 5.99845C9.74494 5.79052 9.47321 5.65769 9.18097 5.62075C8.98372 5.59237 8.78266 5.60699 8.59158 5.66361C8.4005 5.72022 8.22393 5.81749 8.07397 5.94875C7.82022 6.16658 7.66339 6.47629 7.63797 6.80975H6.14297C6.13731 6.42457 6.21967 6.04319 6.38379 5.69468C6.54791 5.34617 6.78944 5.03973 7.08997 4.79875C7.4017 4.52932 7.76725 4.3294 8.16229 4.21232C8.55733 4.09524 8.97278 4.06368 9.38097 4.11975C10.0115 4.20052 10.5965 4.49097 11.0419 4.94441C11.4874 5.39785 11.7674 5.98793 11.837 6.61975C11.9523 7.29325 11.7969 7.98503 11.4048 8.5446C11.0126 9.10417 10.4154 9.48626 9.74297 9.60775V10.4157Z" fill="var(--icon-stroke)"/>
<path id="Rectangle 5672" d="M9.37801 11.4199H8.43201V13.3119H9.37801V11.4199Z" fill="var(--icon-stroke)"/>
</g>
</g>
</svg>
