<svg xmlns="http://www.w3.org/2000/svg" width="56" height="56" viewBox="0 0 56 56">
    <defs>
        <style>
            .cls-2{fill:#bfbcff}
        </style>
    </defs>
    <g id="Group_22427" data-name="Group 22427" transform="translate(-114 -4255)">
        <g id="Group_21731" data-name="Group 21731" transform="translate(114 4255)">
            <rect id="Rectangle_7853" data-name="Rectangle 7853" width="56" height="56" rx="28" style="fill:#f4f8ff"/>
        </g>
        <g id="_4551464_hands_insurance_protection_icon" data-name="4551464_hands_insurance_protection_icon" transform="translate(126.134 4268.067)">
            <path id="Path_33652" data-name="Path 33652" class="cls-2" d="m45.426 24.076.17 5.912-5.54 4.789 1.6-3.523a1.912 1.912 0 0 0-.4-2.023.92.92 0 0 0-1.507.241l-3.458 6.316a2.832 2.832 0 0 0-.476.411A2.975 2.975 0 0 0 35 38.156l-.039.059.17 5.938h7.686l-.835-4.946 6.962-7.373-1.482-9.944a2.121 2.121 0 0 0-2.036 2.186z" transform="translate(-18.143 -14.286)"/>
            <path id="Path_33653" data-name="Path 33653" class="cls-2" d="m11.393 24.076-.183 5.912 5.533 4.789-1.592-3.523a1.912 1.912 0 0 1 .4-2.023.92.92 0 0 1 1.507.241l3.458 6.316a2.831 2.831 0 0 1 .476.411 2.975 2.975 0 0 1 .816 1.957v.059l-.124 5.931h-7.72l.842-4.946-6.956-7.366 1.475-9.944a2.127 2.127 0 0 1 2.068 2.186z" transform="translate(-7.85 -14.286)"/>
            <path id="Path_33654" data-name="Path 33654" d="M34.4 10H22.652a.652.652 0 0 0-.652.652V20.2a3.262 3.262 0 0 0 1.918 2.956l4.607 2.055 4.607-2.055A3.262 3.262 0 0 0 35.05 20.2v-9.548A.652.652 0 0 0 34.4 10z" transform="translate(-13.199 -10)" style="fill:#6964e2"/>
            <path id="Path_33655" data-name="Path 33655" d="m27.5 19.217 2.232 2.238 3.908-3.915" transform="translate(-15.116 -12.649)" style="fill:none;stroke:#fff;stroke-linecap:square;stroke-miterlimit:10;stroke-width:2px"/>
        </g>
    </g>
</svg>
