<svg xmlns="http://www.w3.org/2000/svg" width="13.235" height="11.289" viewBox="0 0 13.235 11.289">
  <g id="Inventory_icon" data-name="Inventory icon" transform="translate(-2.216 -1.982)">
    <path id="Path_20023" data-name="Path 20023" d="M4.132,8.838H9a.73.73,0,0,1,.73.73V13.46a.73.73,0,0,1-.73.73H4.132a.73.73,0,0,1-.73-.73V9.568a.73.73,0,0,1,.73-.73Zm1.459.486H4.132a.243.243,0,0,0-.243.243V13.46a.243.243,0,0,0,.243.243H9a.243.243,0,0,0,.243-.243V9.568A.243.243,0,0,0,9,9.324H7.537v1a.487.487,0,0,1-.757.405l-.216-.144-.217.144a.486.486,0,0,1-.756-.4Zm1.459,0H6.078V10.33l.216-.144a.486.486,0,0,1,.54,0l.217.144Zm.243,2.919a.243.243,0,1,1,.486,0v.73a.243.243,0,1,1-.486,0Zm.973,0a.243.243,0,1,1,.486,0v.73a.243.243,0,1,1-.486,0Zm2.676-3.405h4.865a.73.73,0,0,1,.73.73V13.46a.73.73,0,0,1-.73.73H10.943a.73.73,0,0,1-.73-.73V9.568a.73.73,0,0,1,.73-.73Zm1.459.486H10.943a.243.243,0,0,0-.243.243V13.46a.243.243,0,0,0,.243.243h4.865a.243.243,0,0,0,.243-.243V9.568a.243.243,0,0,0-.243-.243h-1.46v1a.487.487,0,0,1-.757.405l-.216-.144-.217.144a.486.486,0,0,1-.756-.4Zm1.459,0h-.973V10.33l.216-.144a.486.486,0,0,1,.54,0l.217.144Zm.243,2.919a.243.243,0,1,1,.486,0v.73a.243.243,0,1,1-.486,0Zm.973,0a.243.243,0,1,1,.486,0v.73a.243.243,0,1,1-.486,0ZM7.538,3H12.4a.73.73,0,0,1,.73.73V7.622a.73.73,0,0,1-.73.73H7.538a.73.73,0,0,1-.73-.73V3.73A.73.73,0,0,1,7.538,3ZM9,3.486H7.538a.243.243,0,0,0-.243.243V7.622a.243.243,0,0,0,.243.243H12.4a.243.243,0,0,0,.243-.243V3.73a.243.243,0,0,0-.243-.243h-1.46v1a.487.487,0,0,1-.757.405L9.97,4.752,9.753,4.9A.486.486,0,0,1,9,4.492Zm1.459,0H9.483V4.492L9.7,4.347a.486.486,0,0,1,.54,0l.217.144Zm1.216,2.919a.243.243,0,1,1,.486,0v.73a.243.243,0,0,1-.486,0Zm-.973,0a.243.243,0,0,1,.486,0v.73a.243.243,0,0,1-.486,0Z" transform="translate(-1.137 -0.968)"/>
  </g>
</svg>
