<svg xmlns="http://www.w3.org/2000/svg" width="130" height="39" viewBox="0 0 130 39">
  <g id="Group_15928" data-name="Group 15928" transform="translate(3343 -1707.6)">
    <path id="Path_18565" data-name="Path 18565" d="M304.453,3348.271l9.009-5.182a1.775,1.775,0,0,0,0-3.082l-8.815-5.071a1.786,1.786,0,0,0-2.828,1.456V3346.7a1.782,1.782,0,0,0,2.634,1.568Zm1.528-15.535,11.562,6.651a2.361,2.361,0,0,0,2.355,0l.08-.046a1.776,1.776,0,0,0,0-3.083l-15.331-8.819a1.789,1.789,0,0,0-2.828,1.456v.171a.415.415,0,0,1-.622.358l-1.673-.962a.413.413,0,0,1-.2-.437,4.381,4.381,0,0,1,6.658-2.787l15.287,8.795a4.344,4.344,0,0,1,.031,7.516h0l-18.224,10.482a2.5,2.5,0,0,0-1.257,2.169h0a1.789,1.789,0,0,0,2.828,1.456l15.331-8.819a1.776,1.776,0,0,0,0-3.083l-.149-.086a.413.413,0,0,1,0-.716l1.67-.96a.416.416,0,0,1,.482.046,4.345,4.345,0,0,1-.712,7.025l-15.287,8.794a4.369,4.369,0,0,1-6.741-3.619V3333.1a2.207,2.207,0,0,0-1.108-1.913h0a1.789,1.789,0,0,0-2.828,1.456v17.808a1.789,1.789,0,0,0,2.828,1.457h0a.415.415,0,0,1,.622.357v1.916a.415.415,0,0,1-.284.393,4.349,4.349,0,0,1-5.746-4.123v-17.808a4.363,4.363,0,0,1,6.516-3.788Q302.612,3330.8,305.982,3332.736Z" transform="translate(-3635.724 -1613.948)" fill="#fff" fill-rule="evenodd"/>
    <path id="Path_18566" data-name="Path 18566" d="M628.8,3714.664a.659.659,0,0,0,1.042.539l5.651-3.263a.658.658,0,0,0,0-1.14l-5.651-3.263a.66.66,0,0,0-1.042.54Z" transform="translate(-3960.338 -1983.414)" fill="#18f040"/>
    <text id="Omuni" transform="translate(-3304 1738.6)" fill="#fff" font-size="30" font-family="Futura-Medium, Futura" font-weight="500"><tspan x="0" y="0">Omuni</tspan></text>
  </g>
</svg>
