<svg width="130" height="39" viewBox="0 0 130 39" fill="none" xmlns="http://www.w3.org/2000/svg">
<g clip-path="url(#clip0_758_761)">
<path fill-rule="evenodd" clip-rule="evenodd" d="M11.729 26.723L20.738 21.5411C21.0096 21.3858 21.2353 21.1613 21.3924 20.8907C21.5494 20.6201 21.6321 20.3129 21.6321 20.0001C21.6321 19.6872 21.5494 19.3798 21.3924 19.1092C21.2353 18.8386 21.0096 18.6143 20.738 18.459L11.923 13.388C11.6558 13.196 11.3407 13.0817 11.0125 13.0574C10.6844 13.0332 10.356 13.0999 10.0634 13.2506C9.77088 13.4012 9.52566 13.6298 9.35477 13.911C9.18387 14.1921 9.09396 14.515 9.09497 14.8441V25.1519C9.09447 25.4612 9.17447 25.7653 9.32709 26.0342C9.47971 26.3032 9.69972 26.5279 9.96546 26.6861C10.2312 26.8443 10.5335 26.9306 10.8427 26.9366C11.1519 26.9425 11.4574 26.8679 11.729 26.72V26.723ZM13.257 11.1881L24.819 17.8389C25.1772 18.045 25.5832 18.1536 25.9965 18.1536C26.4097 18.1536 26.8158 18.045 27.174 17.8389L27.254 17.793C27.5256 17.6376 27.7513 17.4131 27.9083 17.1424C28.0653 16.8717 28.148 16.5645 28.148 16.2515C28.148 15.9386 28.0653 15.6311 27.9083 15.3604C27.7513 15.0897 27.5256 14.8654 27.254 14.71L11.923 5.89093C11.6555 5.7001 11.3406 5.58673 11.0128 5.56305C10.6851 5.53938 10.3572 5.60625 10.0651 5.75666C9.77292 5.90707 9.52785 6.13508 9.35672 6.41559C9.1856 6.6961 9.09504 7.0184 9.09497 7.34699V7.51789C9.09468 7.59054 9.07532 7.66185 9.03882 7.72467C9.00232 7.7875 8.94997 7.8398 8.887 7.87604C8.82402 7.91228 8.75265 7.93122 8.67999 7.93122C8.60734 7.93122 8.53594 7.91228 8.47296 7.87604L6.79996 6.91388C6.7252 6.87102 6.66572 6.80597 6.62985 6.7276C6.59399 6.64924 6.58355 6.56147 6.59998 6.47687C6.74551 5.78166 7.05788 5.13242 7.5102 4.58478C7.96251 4.03714 8.54119 3.60758 9.19638 3.33332C9.85158 3.05906 10.5636 2.9482 11.2712 3.01032C11.9787 3.07244 12.6606 3.30577 13.258 3.69001L28.545 12.4849C29.2051 12.864 29.7539 13.41 30.1366 14.0679C30.5193 14.7259 30.7224 15.4728 30.7256 16.234C30.7287 16.9951 30.5318 17.7437 30.1545 18.4048C29.7772 19.066 29.2329 19.6165 28.576 20.001L10.352 30.483C9.97003 30.7018 9.65267 31.0176 9.43195 31.3985C9.21123 31.7794 9.09499 32.2117 9.09497 32.6519C9.09504 32.9805 9.1856 33.3028 9.35672 33.5833C9.52785 33.8638 9.77292 34.0918 10.0651 34.2423C10.3572 34.3927 10.6851 34.4595 11.0128 34.4359C11.3406 34.4122 11.6555 34.2988 11.923 34.108L27.254 25.2889C27.5256 25.1335 27.7513 24.9092 27.9083 24.6385C28.0653 24.3678 28.148 24.0603 28.148 23.7474C28.148 23.4345 28.0653 23.1272 27.9083 22.8565C27.7513 22.5858 27.5256 22.3613 27.254 22.2059L27.105 22.1199C27.042 22.0837 26.9898 22.0317 26.9534 21.9688C26.917 21.906 26.8979 21.8346 26.8979 21.762C26.8979 21.6894 26.917 21.6181 26.9534 21.5552C26.9898 21.4924 27.042 21.4401 27.105 21.4039L28.775 20.4439C28.8501 20.4003 28.9369 20.3815 29.0233 20.3897C29.1098 20.398 29.1915 20.433 29.257 20.4901C29.7743 20.9468 30.1754 21.5201 30.427 22.1627C30.6786 22.8053 30.7736 23.4985 30.704 24.1851C30.6344 24.8717 30.4023 25.5319 30.0269 26.1109C29.6514 26.6899 29.1434 27.1713 28.545 27.515L13.258 36.3089C12.6018 36.7332 11.8439 36.9737 11.0632 37.0054C10.2825 37.0372 9.50755 36.8592 8.81912 36.4896C8.1307 36.12 7.55399 35.5724 7.14908 34.9041C6.74418 34.2359 6.52588 33.4713 6.51697 32.69V11.5521C6.51681 11.1639 6.41429 10.7827 6.21976 10.4468C6.02523 10.111 5.74556 9.83226 5.40897 9.63898C5.14148 9.44815 4.82661 9.33477 4.49887 9.3111C4.17114 9.28743 3.8432 9.35429 3.55106 9.5047C3.25892 9.65511 3.01384 9.88313 2.84271 10.1636C2.67159 10.4441 2.58103 10.7664 2.58097 11.095V28.9029C2.58085 29.2316 2.6713 29.5539 2.84235 29.8345C3.0134 30.1152 3.25846 30.3434 3.55063 30.494C3.84281 30.6445 4.17081 30.7117 4.49863 30.6881C4.82645 30.6644 5.14141 30.5508 5.40897 30.3599C5.47187 30.3237 5.54315 30.3048 5.61573 30.3048C5.6883 30.3047 5.75963 30.3236 5.82257 30.3597C5.88551 30.3958 5.93786 30.4479 5.97443 30.5106C6.011 30.5732 6.03051 30.6443 6.03098 30.7169V32.6329C6.03081 32.7199 6.0033 32.8048 5.95233 32.8753C5.90137 32.9458 5.82954 32.9985 5.74698 33.0259C5.0922 33.248 4.39389 33.3108 3.70999 33.209C3.0261 33.1073 2.37631 32.8441 1.81455 32.441C1.25278 32.0379 0.795234 31.5067 0.47983 30.8914C0.164427 30.2761 0.000266209 29.5943 0.000978873 28.9029V11.095C0.00216338 10.3325 0.203144 9.58354 0.583926 8.92292C0.964707 8.26229 1.512 7.71312 2.17121 7.3299C2.83042 6.94667 3.57854 6.74284 4.34104 6.73883C5.10353 6.73483 5.85377 6.93067 6.51697 7.30695C8.7643 8.60362 11.0113 9.89739 13.258 11.1881H13.257Z" fill="#06064D"/>
<path d="M11.4619 23.65C11.4614 23.7713 11.4944 23.8903 11.5573 23.994C11.6201 24.0978 11.7104 24.1822 11.8181 24.2379C11.9259 24.2937 12.047 24.3186 12.168 24.3099C12.289 24.3013 12.4052 24.2594 12.5039 24.1888L18.1549 20.9259C18.255 20.8682 18.3381 20.7852 18.3959 20.6852C18.4537 20.5851 18.4842 20.4716 18.4842 20.3561C18.4842 20.2405 18.4537 20.1268 18.3959 20.0267C18.3381 19.9267 18.255 19.8437 18.1549 19.786L12.5039 16.5231C12.405 16.4529 12.2887 16.4111 12.1678 16.4027C12.0468 16.3943 11.9259 16.4194 11.8182 16.4752C11.7106 16.531 11.6204 16.6154 11.5576 16.7191C11.4947 16.8228 11.4616 16.9416 11.4619 17.0629V23.65Z" fill="#18F040"/>
<path d="M40.582 21.5889C40.582 18.4053 41.749 15.6709 44.083 13.3857C46.4072 11.1006 49.2002 9.95801 52.4619 9.95801C55.6846 9.95801 58.4482 11.1104 60.7529 13.415C63.0674 15.7197 64.2246 18.4883 64.2246 21.7207C64.2246 24.9727 63.0625 27.7314 60.7383 29.9971C58.4043 32.2725 55.5869 33.4102 52.2861 33.4102C49.3662 33.4102 46.7441 32.3994 44.4199 30.3779C41.8613 28.1416 40.582 25.2119 40.582 21.5889ZM44.0244 21.6328C44.0244 24.1328 44.8643 26.1885 46.5439 27.7998C48.2139 29.4111 50.1426 30.2168 52.3301 30.2168C54.7031 30.2168 56.7051 29.3965 58.3359 27.7559C59.9668 26.0957 60.7822 24.0742 60.7822 21.6914C60.7822 19.2793 59.9766 17.2578 58.3652 15.627C56.7637 13.9863 54.7812 13.166 52.418 13.166C50.0645 13.166 48.0771 13.9863 46.4561 15.627C44.835 17.248 44.0244 19.25 44.0244 21.6328ZM67.8867 18.7324H71.1826V20.0508C71.8174 19.3867 72.3594 18.9375 72.8086 18.7031C73.2871 18.459 73.8877 18.3369 74.6104 18.3369C76.2217 18.3369 77.4961 19.04 78.4336 20.4463C79.4688 19.04 80.8701 18.3369 82.6377 18.3369C85.8506 18.3369 87.457 20.2852 87.457 24.1816V33H84.1465V25.0752C84.1465 23.708 83.9805 22.7412 83.6484 22.1748C83.3066 21.5986 82.7451 21.3105 81.9639 21.3105C81.0557 21.3105 80.3916 21.6523 79.9717 22.3359C79.5615 23.0195 79.3564 24.1182 79.3564 25.6318V33H76.0459V25.1191C76.0459 22.5801 75.3135 21.3105 73.8486 21.3105C72.9209 21.3105 72.2422 21.6572 71.8125 22.3506C71.3926 23.0439 71.1826 24.1377 71.1826 25.6318V33H67.8867V18.7324ZM94.9131 18.7324V26.9209C94.9131 29.2842 95.8457 30.4658 97.7109 30.4658C99.5762 30.4658 100.509 29.2842 100.509 26.9209V18.7324H103.805V26.9941C103.805 28.1367 103.663 29.123 103.38 29.9531C103.106 30.6953 102.633 31.3643 101.959 31.96C100.846 32.9268 99.4297 33.4102 97.7109 33.4102C96.002 33.4102 94.5908 32.9268 93.4775 31.96C92.7939 31.3643 92.3105 30.6953 92.0273 29.9531C91.7539 29.2891 91.6172 28.3027 91.6172 26.9941V18.7324H94.9131ZM107.965 18.7324H111.275V20.0508C112.428 18.9082 113.727 18.3369 115.172 18.3369C116.832 18.3369 118.126 18.8594 119.054 19.9043C119.854 20.793 120.255 22.2432 120.255 24.2549V33H116.944V25.0312C116.944 23.625 116.749 22.6533 116.358 22.1162C115.978 21.5693 115.284 21.2959 114.278 21.2959C113.185 21.2959 112.408 21.6572 111.949 22.3799C111.5 23.0928 111.275 24.3379 111.275 26.1152V33H107.965V18.7324ZM127.726 18.7324V33H124.43V18.7324H127.726ZM123.932 12.7998C123.932 12.2236 124.142 11.7256 124.562 11.3057C124.981 10.8857 125.484 10.6758 126.07 10.6758C126.666 10.6758 127.174 10.8857 127.594 11.3057C128.014 11.7158 128.224 12.2187 128.224 12.8145C128.224 13.4102 128.014 13.918 127.594 14.3379C127.184 14.7578 126.681 14.9678 126.085 14.9678C125.489 14.9678 124.981 14.7578 124.562 14.3379C124.142 13.918 123.932 13.4053 123.932 12.7998Z" fill="#06064D"/>
</g>
<defs>
<clipPath id="clip0_758_761">
<rect width="130" height="39" fill="white"/>
</clipPath>
</defs>
</svg>
