<svg id="orders_icon" data-name="orders icon" xmlns="http://www.w3.org/2000/svg" width="10.458" height="10.087" viewBox="0 0 10.458 10.087">
  <path id="Path_20024" data-name="Path 20024" d="M86.652,102.087H77.807A.808.808,0,0,1,77,101.28V92.807A.808.808,0,0,1,77.807,92h8.844a.808.808,0,0,1,.807.807v8.472A.807.807,0,0,1,86.652,102.087ZM77.807,92.72a.086.086,0,0,0-.086.086v8.472a.086.086,0,0,0,.086.086h8.844a.086.086,0,0,0,.086-.086V92.807a.086.086,0,0,0-.086-.086Z" transform="translate(-77 -92)"/>
  <path id="Path_20025" data-name="Path 20025" d="M358.795,96.678,356.9,95.6,355,96.678V92h3.795Zm-1.9-1.9,1.177.665V92.72H355.72v2.723Z" transform="translate(-351.662 -92)"/>
  <rect id="Rectangle_9253" data-name="Rectangle 9253" width="2.856" height="0.72" transform="translate(2.188 7.106)"/>
</svg>
