<svg xmlns="http://www.w3.org/2000/svg" width="8.663" height="10.999" viewBox="0 0 8.663 10.999">
  <path id="products_icon" data-name="products icon" d="M21.927,6.751H20.436V6.417a2.493,2.493,0,1,0-4.987,0v.334H13.958a.352.352,0,0,0-.358.358v6.872a.919.919,0,0,0,.919.919h6.824a.919.919,0,0,0,.919-.919V7.1A.322.322,0,0,0,21.927,6.751Zm-5.762-.346a1.778,1.778,0,1,1,3.555,0v.334H16.165Zm5.189,7.778H14.531a.214.214,0,0,1-.215-.215V7.455h1.133V9.423a.358.358,0,1,0,.716,0V7.455H19.72V9.423a.358.358,0,1,0,.716,0V7.455h1.133v6.514A.214.214,0,0,1,21.354,14.183Z" transform="translate(-13.6 -3.9)"/>
</svg>
