<svg width="14" height="19" viewBox="0 0 14 19" fill="none" xmlns="http://www.w3.org/2000/svg">
<g id="Group 16371">
<g id="Group 11336">
<g id="Group 11285">
<path id="Path 17591" d="M8.48501 0.000791116C7.5564 -0.00609659 6.64065 0.218054 5.82021 0.653064C4.99976 1.08807 4.30037 1.72029 3.78501 2.49279V0.579792H2.55701V3.85879C2.56249 4.01653 2.62991 4.16575 2.74465 4.27413C2.85939 4.3825 3.01221 4.44131 3.17001 4.43779H6.64501V3.27979H4.71801C5.29765 2.31924 6.22052 1.61473 7.29988 1.30878C8.37925 1.00283 9.53453 1.11829 10.532 1.63179C12.62 2.69179 12.432 5.17379 13.809 3.85379C13.4578 2.72206 12.7491 1.73475 11.7891 1.04003C10.8292 0.345313 9.6698 -0.0193429 8.48501 0.000791116Z" fill="var(--icon-stroke)"/>
</g>
</g>
<g id="Group 11349">
<g id="Group 11348">
<path id="Path 18407" d="M13.243 6.00071H0.757C0.565893 5.99226 0.379174 6.05958 0.237425 6.18803C0.0956758 6.31649 0.0103529 6.4957 0 6.68671V17.3147C0.0103529 17.5057 0.0956758 17.6849 0.237425 17.8134C0.379174 17.9418 0.565893 18.0092 0.757 18.0007H13.243C13.4341 18.0092 13.6208 17.9418 13.7626 17.8134C13.9043 17.6849 13.9896 17.5057 14 17.3147V6.68671C13.9896 6.4957 13.9043 6.31649 13.7626 6.18803C13.6208 6.05958 13.4341 5.99226 13.243 6.00071Z" fill="#6964E2"/>
<path id="Path 18408" d="M8.82396 11.2705H5.17496C5.12094 11.2737 5.06685 11.2654 5.01626 11.2462C4.96567 11.227 4.91973 11.1972 4.88147 11.159C4.8432 11.1207 4.81348 11.0748 4.79426 11.0242C4.77504 10.9736 4.76676 10.9195 4.76996 10.8655V6.00049H9.22896V10.8655C9.23216 10.9195 9.22388 10.9736 9.20466 11.0242C9.18544 11.0748 9.15572 11.1207 9.11745 11.159C9.07919 11.1972 9.03325 11.227 8.98266 11.2462C8.93207 11.2654 8.87798 11.2737 8.82396 11.2705Z" fill="var(--icon-stroke)"/>
</g>
</g>
</g>
</svg>
