<svg xmlns="http://www.w3.org/2000/svg" width="12" height="12" viewBox="0 0 12 12">
  <g id="search" transform="translate(0 0.037)">
    <g id="zoom-split">
      <path id="Combined_Shape" data-name="Combined Shape" d="M11.212,11.864,9,9.649A.461.461,0,0,1,9.649,9l2.215,2.215a.461.461,0,1,1-.652.652ZM0,4.892A4.892,4.892,0,1,1,4.892,9.784,4.9,4.9,0,0,1,0,4.892Zm.923,0A3.969,3.969,0,1,0,4.892.923,3.974,3.974,0,0,0,.923,4.892ZM2,4.523A2.522,2.522,0,0,1,4.523,2a.308.308,0,1,1,0,.615A1.908,1.908,0,0,0,2.615,4.523a.308.308,0,1,1-.615,0Z" transform="translate(0 -0.037)" />
    </g>
  </g>
</svg>
