<svg data-name="Group 16013" xmlns="http://www.w3.org/2000/svg" width="24" height="24" viewBox="0 0 24 24">
    <path data-name="Rectangle 5426" style="fill:none" d="M0 0h24v24H0z"/>
    <g data-name="Group 11517">
        <path data-name="Path 18404" d="M10.713 12.655a3.716 3.716 0 1 1 1.936-4.885 3.716 3.716 0 0 1-1.932 4.88z" transform="translate(2.724 2.722)" style="fill:var(--icon-stroke)"/>
        <path data-name="Path 18403" d="M17.757 5.2a1.9 1.9 0 0 0-1.722-1.1 2.629 2.629 0 0 1-1.782-.54 2.6 2.6 0 0 1-.594-1.76A1.894 1.894 0 0 0 12.507.112a1.894 1.894 0 0 0-1.992.439 2.687 2.687 0 0 1-1.643.886A2.587 2.587 0 0 1 7.206.61a1.9 1.9 0 0 0-2-.383A1.9 1.9 0 0 0 4.1 1.95a2.631 2.631 0 0 1-.54 1.782 2.612 2.612 0 0 1-1.76.594A1.906 1.906 0 0 0 .112 5.48a1.9 1.9 0 0 0 .439 1.993 2.689 2.689 0 0 1 .885 1.642 2.584 2.584 0 0 1-.826 1.667 1.891 1.891 0 0 0-.383 2.007 1.9 1.9 0 0 0 1.722 1.1 2.629 2.629 0 0 1 1.782.54 2.59 2.59 0 0 1 .594 1.764 1.893 1.893 0 0 0 1.153 1.687 1.893 1.893 0 0 0 1.992-.439 2.634 2.634 0 0 1 1.641-.879 2.644 2.644 0 0 1 1.67.83 1.825 1.825 0 0 0 3.106-1.343 2.631 2.631 0 0 1 .54-1.782 2.582 2.582 0 0 1 1.765-.589 1.827 1.827 0 0 0 1.247-3.15 2.66 2.66 0 0 1-.887-1.644 2.574 2.574 0 0 1 .83-1.667 1.925 1.925 0 0 0 .375-2.017zm-7.378 7.01A3.5 3.5 0 1 1 12.2 7.607a3.5 3.5 0 0 1-1.821 4.6z" transform="translate(3.004 3.004)" style="fill:#6964e2"/>
    </g>
</svg>
