<svg id="tools" xmlns="http://www.w3.org/2000/svg" width="24" height="24" viewBox="0 0 24 24">
  <rect id="Rectangle_5424" data-name="Rectangle 5424" width="24" height="24" fill="none"/>
  <g id="Group_27043" data-name="Group 27043" transform="translate(-1 -0.002)">
    <g id="Group_27042" data-name="Group 27042" transform="translate(-3173 -557.5)">
      <path id="Path_20015" data-name="Path 20015" d="M14.578,8.89a5.688,5.688,0,1,0,5.688,5.688A5.688,5.688,0,0,0,14.578,8.89Zm2.647,4.758-2.741,2.86a.712.712,0,0,1-.512.219.7.7,0,0,1-.487-.194L11.956,15.1a.712.712,0,1,1,.974-1.036l1.024.955L16.2,12.661a.713.713,0,0,1,1.03.987Z" transform="translate(3171.42 554.921)" fill="var(--icon-stroke)" fill-rule="evenodd"/>
      <path id="Path_20016" data-name="Path 20016" d="M21.508,10.418,20.259,8.545s-.219-1.118-.431-2.179a2.866,2.866,0,0,0-2.223-2.223L15.42,3.7,13.547,2.451a2.86,2.86,0,0,0-3.122,0L8.551,3.7l-2.185.443A2.866,2.866,0,0,0,4.143,6.366C3.931,7.434,3.7,8.558,3.7,8.558L2.451,10.431a2.86,2.86,0,0,0,0,3.122L3.7,15.426s.231,1.124.443,2.192a2.866,2.866,0,0,0,2.223,2.21l2.192.443,1.873,1.249a2.86,2.86,0,0,0,3.122,0l1.873-1.249,2.179-.443a2.866,2.866,0,0,0,2.223-2.223c.212-1.068.443-2.192.443-2.192L21.52,13.54A2.86,2.86,0,0,0,21.508,10.418ZM11.986,19.1A7.112,7.112,0,1,1,19.1,11.986,7.112,7.112,0,0,1,11.986,19.1Z" transform="translate(3174.012 557.514)" fill="#6964e2" fill-rule="evenodd"/>
    </g>
  </g>
</svg>
